<svg viewBox="0 0 448.07 139.7" xmlns="http://www.w3.org/2000/svg" xmlns:xlink="http://www.w3.org/1999/xlink" id="Layer_1" overflow="hidden"><defs></defs><path d="M16.38 16.31C19.63 12 24 9.88 29.77 9.88 34.4 9.88 38.03 11.1 40.57 13.53 43.11 15.96 44.65 19.64 45.47 24.8 45.6284 25.7481 46.4389 26.4495 47.4 26.47L56.05 26.47C56.3287 26.4665 56.5933 26.3469 56.78 26.14 56.9681 25.93 57.0589 25.6504 57.03 25.37 56.25 17.5 53.45 11.24 48.71 6.76 43.97 2.28 37.59 0 29.77 0 24.2493-0.104698 18.8156 1.38481 14.12 4.29 9.5042 7.26861 5.86654 11.5392 3.66 16.57 1.12485 22.3387-0.124071 28.5901 8.01086e-07 34.89L0 41.89C0 52.46 2.65 61 7.87 67.37 13.09 73.74 20.22 77 28.93 77 36.93 77 43.46 74.8 48.32 70.46 53.18 66.12 56.12 59.89 57 52 57.0319 51.7162 56.9409 51.4324 56.75 51.22 56.57 51.0029 56.302 50.8781 56.02 50.88L47.39 50.88C46.4391 50.9034 45.6362 51.5934 45.47 52.53 44.56 57.85 42.84 61.63 40.36 63.78 37.88 65.93 33.91 67.17 28.93 67.17 23.7969 67.3859 18.931 64.8769 16.13 60.57 13 56 11.45 49.87 11.45 42.19L11.45 35.11C11.45 27 13.1 20.66 16.38 16.31Z" fill="#FFFFFF"/><path d="M185.2 0 177.31 0C176.205 0 175.31 0.895431 175.31 2L175.31 55.57 139.37 0.47C139.185 0.173969 138.859-0.00417413 138.51-1.19209e-09L129.51 0C128.405 0 127.51 0.895431 127.51 2L127.51 75C127.51 76.1046 128.405 77 129.51 77L137.51 77C138.615 77 139.51 76.1046 139.51 75L139.51 21.68 175.35 76.53C175.535 76.826 175.861 77.0042 176.21 77L185.21 77C186.315 77 187.21 76.1046 187.21 75L187.21 2C187.21 0.895431 186.315-1.11928e-05 185.21-2.5e-05 185.207-2.50418e-05 185.203-1.67084e-05 185.2-4.05898e-13Z" fill="#FFFFFF"/><path d="M253 0 197 0C195.895 0 195 0.895431 195 2L195 8.14C195 9.24457 195.895 10.14 197 10.14L219 10.14 219 75C219 76.1046 219.895 77 221 77L228.89 77C229.995 77 230.89 76.1046 230.89 75L230.89 10.14 253 10.14C254.105 10.14 255 9.24457 255 8.14L255 2C255 0.895431 254.105 -4.44089e-16 253 -4.44089e-16Z" fill="#FFFFFF"/><path d="M310.47 66.86 276.74 66.86C275.635 66.86 274.74 65.9646 274.74 64.86L274.74 44.36C274.74 43.2554 275.635 42.36 276.74 42.36L305.22 42.36C306.325 42.36 307.22 41.4646 307.22 40.36L307.22 34.22C307.22 33.1154 306.325 32.22 305.22 32.22L276.74 32.22C275.635 32.22 274.74 31.3246 274.74 30.22L274.74 12.14C274.74 11.0354 275.635 10.14 276.74 10.14L310 10.14C311.105 10.14 312 9.24457 312 8.14L312 2C312 0.895431 311.105 -4.44089e-16 310 -4.44089e-16L264.8 0C263.695 0 262.8 0.895431 262.8 2L262.8 75C262.8 76.1046 263.695 77 264.8 77L310.47 77C311.575 77 312.47 76.1046 312.47 75L312.47 68.86C312.47 67.7554 311.575 66.86 310.47 66.86Z" fill="#FFFFFF"/><path d="M378.1 0 370.21 0C369.105 0 368.21 0.895431 368.21 2L368.21 55.57 332.27 0.47C332.085 0.173969 331.759-0.00417413 331.41-1.19209e-09L322.41 0C321.305 0 320.41 0.895431 320.41 2L320.41 75C320.41 76.1046 321.305 77 322.41 77L330.41 77C331.515 77 332.41 76.1046 332.41 75L332.41 21.68 368.25 76.53C368.435 76.826 368.761 77.0042 369.11 77L378.11 77C379.215 77 380.11 76.1046 380.11 75L380.11 2C380.11 0.895431 379.215-1.11928e-05 378.11-2.5e-05 378.107-2.50418e-05 378.103-1.67084e-05 378.1-4.06342e-13Z" fill="#FFFFFF"/><path d="M445.91 0 389.91 0C388.805 0 387.91 0.895431 387.91 2L387.91 8.14C387.91 9.24457 388.805 10.14 389.91 10.14L411.91 10.14 411.91 75C411.91 76.1046 412.805 77 413.91 77L421.8 77C422.905 77 423.8 76.1046 423.8 75L423.8 10.14 445.88 10.14C446.985 10.14 447.88 9.24457 447.88 8.14L447.88 2C447.88 0.907041 447.003 0.0163944 445.91 2.22045e-16Z" fill="#FFFFFF"/><path d="M117 17.47C113.46 8.2 104.32 1.35 94.35 0L94.35 10.28C98.72 11.2 103.29 13.75 105.73 17.28L88.55 35.73 94.68 41.42 108.84 26.21 108.84 26.21Z" fill="#EB2026"/><path d="M108.9 34.26 108.9 49.12C108.9 58.93 101.39 66.86 91.68 66.86 82.3 66.86 74.46 58.93 74.46 49.12L74.46 27.52C74.4539 18.8957 80.7456 11.559 89.27 10.25L89.27 0C76 1.75 64.64 13.4 64.64 27.52L64.64 49.12C64.64 64.44 76.78 77 91.64 77 106.5 77 118.79 64.44 118.79 49.12L118.79 27.52C118.78 26.3024 118.693 25.0867 118.53 23.88Z" fill="#FFFFFF"/><path d="M0.07 84.85 448.07 84.85 448.07 84.85 448.07 127.15C448.07 134.081 442.451 139.7 435.52 139.7L12.62 139.7C5.68883 139.7 0.0699999 134.081 0.0699999 127.15L0.07 84.85 0.07 84.85Z" fill="#EB2026"/><path d="M40.65 113.15C40.7137 116.126 40.1303 119.081 38.94 121.81 37.915 124.154 36.2209 126.144 34.07 127.53 31.8787 128.883 29.3448 129.577 26.77 129.53 24.2052 129.573 21.682 128.879 19.5 127.53 17.3324 126.157 15.6149 124.179 14.56 121.84 13.3525 119.172 12.7514 116.269 12.8 113.34L12.8 111.45C12.7388 108.468 13.3328 105.508 14.54 102.78 15.5694 100.41 17.278 98.399 19.45 97 21.631 95.6491 24.1549 94.9548 26.72 95 29.2871 94.9635 31.8118 95.6571 34 97 36.156 98.3707 37.8603 100.346 38.9 102.68 40.1006 105.389 40.6977 108.327 40.65 111.29ZM34.82 111.4C34.82 107.68 34.11 104.83 32.71 102.85 31.3608 100.883 29.0934 99.749 26.71 99.85 24.356 99.7708 22.1255 100.903 20.8 102.85 19.38 104.85 18.65 107.62 18.62 111.23L18.62 113.16C18.62 116.847 19.34 119.7 20.78 121.72 22.1318 123.684 24.3974 124.817 26.78 124.72 29.1659 124.833 31.4387 123.696 32.78 121.72 34.17 119.72 34.87 116.88 34.87 113.1Z" fill="#FFFFFF"/><path d="M68.11 116.61 68.11 129.06 62.28 129.06 62.28 95.49 75.12 95.49C78.8733 95.49 81.85 96.47 84.05 98.43 86.2621 100.385 87.4776 103.23 87.36 106.18 87.5163 109.105 86.322 111.939 84.12 113.87 81.96 115.703 78.9367 116.617 75.05 116.61ZM68.11 111.91 75.11 111.91C76.8212 112.029 78.5153 111.505 79.86 110.44 81.0047 109.341 81.605 107.793 81.5 106.21 81.5732 104.596 80.9719 103.023 79.84 101.87 78.5948 100.735 76.9534 100.135 75.27 100.2L68.11 100.2Z" fill="#FFFFFF"/><path d="M127.9 114.08 114.11 114.08 114.11 124.4 130.23 124.4 130.23 129.06 108.28 129.06 108.28 95.49 130.07 95.49 130.07 100.2 114.07 100.2 114.07 109.46 127.9 109.46Z" fill="#FFFFFF"/><path d="M163.13 116.15 156.63 116.15 156.63 129.06 150.8 129.06 150.8 95.49 162.6 95.49C166.48 95.49 169.48 96.36 171.6 98.1 173.71 99.84 174.76 102.35 174.76 105.65 174.829 107.654 174.262 109.628 173.14 111.29 171.986 112.854 170.416 114.063 168.61 114.78L176.14 128.78 176.14 129.08 169.9 129.08ZM156.63 111.45 162.63 111.45C164.299 111.547 165.943 111.015 167.24 109.96 168.367 108.915 168.974 107.425 168.9 105.89 168.998 104.347 168.443 102.834 167.37 101.72 166.092 100.649 164.454 100.105 162.79 100.2L156.63 100.2Z" fill="#FFFFFF"/><path d="M214.88 121.25 201.88 121.25 199.16 129.06 193.1 129.06 205.78 95.49 211 95.49 223.7 129.06 217.62 129.06ZM203.51 116.54 213.24 116.54 208.37 102.62Z" fill="#FFFFFF"/><path d="M264.82 100.2 254.35 100.2 254.35 129.06 248.57 129.06 248.57 100.2 238.19 100.2 238.19 95.49 264.82 95.49Z" fill="#FFFFFF"/><path d="M291.2 129.06 285.39 129.06 285.39 95.49 291.2 95.49Z" fill="#FFFFFF"/><path d="M341 113.15C341.062 116.125 340.482 119.079 339.3 121.81 338.272 124.156 336.575 126.146 334.42 127.53 329.926 130.183 324.344 130.183 319.85 127.53 317.685 126.157 315.971 124.178 314.92 121.84 313.715 119.17 313.11 116.269 313.15 113.34L313.15 111.45C313.089 108.468 313.683 105.508 314.89 102.78 315.914 100.413 317.615 98.402 319.78 97 324.269 94.3525 329.841 94.3525 334.33 97 336.486 98.3707 338.19 100.346 339.23 102.68 340.435 105.388 341.033 108.327 340.98 111.29ZM335.17 111.4C335.17 107.68 334.467 104.83 333.06 102.85 330.593 99.5639 325.929 98.8998 322.643 101.367 322.081 101.789 321.582 102.288 321.16 102.85 319.74 104.85 319.02 107.62 318.99 111.23L318.99 113.16C318.99 116.85 319.7 119.7 321.14 121.72 322.499 123.676 324.76 124.806 327.14 124.72 329.526 124.835 331.8 123.698 333.14 121.72 334.53 119.72 335.23 116.88 335.23 113.1Z" fill="#FFFFFF"/><path d="M389.24 129.06 383.41 129.06 368.41 105.25 368.41 129.06 362.58 129.06 362.58 95.49 368.41 95.49 383.41 119.4 383.41 95.49 389.19 95.49Z" fill="#FFFFFF"/><path d="M429.5 120.41C429.58 119.098 429.021 117.828 428 117 426.271 115.893 424.373 115.076 422.38 114.58 420.121 113.957 417.953 113.043 415.93 111.86 412.87 109.94 411.34 107.437 411.34 104.35 411.301 101.717 412.533 99.2262 414.65 97.66 417.105 95.8228 420.116 94.8839 423.18 95 425.333 94.9612 427.468 95.4018 429.43 96.29 431.185 97.0858 432.679 98.3615 433.74 99.97 434.78 101.537 435.327 103.379 435.31 105.26L429.5 105.26C429.583 103.714 428.979 102.21 427.85 101.15 426.522 100.081 424.841 99.5496 423.14 99.66 421.566 99.5644 420.004 99.9935 418.7 100.88 417.65 101.692 417.061 102.964 417.12 104.29 417.13 105.541 417.774 106.701 418.83 107.37 420.567 108.457 422.463 109.267 424.45 109.77 426.658 110.369 428.777 111.261 430.75 112.42 432.172 113.255 433.367 114.426 434.23 115.83 434.985 117.211 435.364 118.766 435.33 120.34 435.415 122.954 434.216 125.445 432.12 127.01 429.97 128.67 427.07 129.49 423.39 129.49 421.087 129.516 418.804 129.056 416.69 128.14 414.802 127.352 413.164 126.067 411.95 124.42 410.809 122.805 410.213 120.867 410.25 118.89L416.08 118.89C415.986 120.577 416.685 122.212 417.97 123.31 419.536 124.453 421.455 125.009 423.39 124.88 425.012 124.998 426.626 124.565 427.97 123.65 428.962 122.872 429.529 121.671 429.5 120.41Z" fill="#FFFFFF"/></svg>